<?xml version="1.0" encoding="UTF-8"?>
<svg xmlns="http://www.w3.org/2000/svg" xmlns:xlink="http://www.w3.org/1999/xlink" viewBox="0 0 50 50" width="50px" height="50px">
<g id="surface10509622">
<path style=" stroke:none;fill-rule:nonzero;fill:rgb(65.490198%,56.078434%,86.274511%);fill-opacity:1;" d="M 25 50 C 11.191406 50 0 38.808594 0 25 C 0 11.191406 11.191406 0 25 0 C 38.808594 0 50 11.191406 50 25 C 50 38.808594 38.808594 50 25 50 Z M 25 50 "/>
<path style=" stroke:none;fill-rule:nonzero;fill:rgb(100%,100%,100%);fill-opacity:1;" d="M 40.113281 10.382812 C 39.734375 10.398438 39.363281 10.503906 39.03125 10.636719 C 38.699219 10.769531 36.796875 11.582031 33.992188 12.78125 C 31.1875 13.980469 27.539062 15.542969 23.921875 17.09375 C 16.6875 20.191406 9.582031 23.242188 9.582031 23.242188 L 9.632812 23.222656 C 9.632812 23.222656 9.203125 23.367188 8.769531 23.667969 C 8.550781 23.820312 8.316406 24.015625 8.125 24.300781 C 7.933594 24.585938 7.792969 24.988281 7.847656 25.417969 C 8.03125 26.917969 9.589844 27.34375 9.589844 27.34375 L 9.59375 27.347656 L 16.539062 29.726562 C 16.714844 30.316406 18.644531 36.753906 19.070312 38.117188 C 19.304688 38.871094 19.523438 39.308594 19.753906 39.605469 C 19.867188 39.753906 19.988281 39.867188 20.121094 39.953125 C 20.171875 39.984375 20.226562 40.007812 20.28125 40.03125 C 20.285156 40.03125 20.285156 40.03125 20.285156 40.03125 C 20.292969 40.035156 20.300781 40.035156 20.304688 40.039062 L 20.289062 40.035156 C 20.300781 40.039062 20.3125 40.046875 20.324219 40.050781 C 20.351562 40.058594 20.367188 40.058594 20.398438 40.066406 C 21.191406 40.34375 21.851562 39.828125 21.851562 39.828125 L 21.878906 39.808594 L 26.144531 35.851562 L 33.066406 41.25 L 33.15625 41.289062 C 34.367188 41.828125 35.460938 41.527344 36.070312 41.03125 C 36.675781 40.539062 36.914062 39.902344 36.914062 39.902344 L 36.941406 39.835938 L 42.027344 13.320312 C 42.15625 12.726562 42.175781 12.214844 42.054688 11.75 C 41.929688 11.289062 41.632812 10.882812 41.257812 10.660156 C 40.882812 10.4375 40.492188 10.367188 40.113281 10.382812 Z M 40.152344 11.96875 C 40.308594 11.960938 40.421875 11.980469 40.457031 12 C 40.496094 12.023438 40.511719 12.019531 40.546875 12.148438 C 40.578125 12.28125 40.597656 12.554688 40.503906 12.988281 L 40.5 12.996094 L 35.441406 39.355469 C 35.429688 39.382812 35.324219 39.628906 35.085938 39.824219 C 34.839844 40.023438 34.566406 40.179688 33.839844 39.875 L 26.269531 33.972656 L 26.058594 33.804688 L 26.054688 33.808594 L 23.789062 32.109375 L 36.511719 17.140625 C 36.710938 16.90625 36.753906 16.574219 36.621094 16.296875 C 36.488281 16.019531 36.207031 15.847656 35.898438 15.855469 C 35.75 15.859375 35.609375 15.902344 35.484375 15.984375 L 17.074219 28.257812 L 10.117188 25.878906 C 10.117188 25.878906 9.429688 25.492188 9.394531 25.226562 C 9.394531 25.210938 9.386719 25.222656 9.421875 25.171875 C 9.457031 25.117188 9.546875 25.027344 9.660156 24.949219 C 9.886719 24.789062 10.144531 24.695312 10.144531 24.695312 L 10.171875 24.6875 L 10.195312 24.675781 C 10.195312 24.675781 17.304688 21.625 24.535156 18.527344 C 28.152344 16.980469 31.800781 15.417969 34.605469 14.21875 C 37.410156 13.019531 39.4375 12.15625 39.609375 12.085938 C 39.804688 12.007812 40 11.976562 40.152344 11.96875 Z M 31.714844 20.371094 L 22.066406 31.726562 L 22.0625 31.730469 C 22.046875 31.746094 22.03125 31.765625 22.019531 31.785156 C 22.003906 31.808594 21.992188 31.828125 21.976562 31.851562 C 21.921875 31.945312 21.886719 32.046875 21.875 32.152344 C 21.875 32.152344 21.875 32.15625 21.875 32.15625 L 20.617188 37.8125 C 20.597656 37.75 20.582031 37.726562 20.558594 37.65625 L 20.558594 37.652344 C 20.160156 36.371094 18.339844 30.296875 18.089844 29.457031 Z M 23.15625 33.585938 L 24.890625 34.886719 L 22.34375 37.25 Z M 23.15625 33.585938 "/>
</g>
</svg>
