<?xml version="1.0" encoding="UTF-8"?>
<svg xmlns="http://www.w3.org/2000/svg" xmlns:xlink="http://www.w3.org/1999/xlink" viewBox="0 0 50 50" width="50px" height="50px">
<g id="surface10680199">
<path style=" stroke:none;fill-rule:nonzero;fill:rgb(65.490198%,56.078434%,86.274511%);fill-opacity:1;" d="M 25 50 C 11.191406 50 0 38.808594 0 25 C 0 11.191406 11.191406 0 25 0 C 38.808594 0 50 11.191406 50 25 C 50 38.808594 38.808594 50 25 50 Z M 25 50 "/>
<path style=" stroke:none;fill-rule:nonzero;fill:rgb(100%,100%,100%);fill-opacity:1;" d="M 25 8.671875 C 15.988281 8.671875 8.671875 15.988281 8.671875 25 C 8.671875 27.894531 9.464844 30.597656 10.789062 32.957031 L 8.695312 40.429688 C 8.628906 40.671875 8.695312 40.933594 8.871094 41.113281 C 9.046875 41.296875 9.304688 41.371094 9.550781 41.308594 L 17.339844 39.378906 C 19.628906 40.601562 22.226562 41.328125 25 41.328125 C 34.011719 41.328125 41.328125 34.011719 41.328125 25 C 41.328125 15.988281 34.011719 8.671875 25 8.671875 Z M 25 10.089844 C 33.242188 10.089844 39.910156 16.757812 39.910156 25 C 39.910156 33.242188 33.242188 39.910156 25 39.910156 C 22.355469 39.910156 19.882812 39.222656 17.730469 38.015625 C 17.574219 37.929688 17.386719 37.90625 17.214844 37.949219 L 10.390625 39.636719 L 12.222656 33.113281 C 12.273438 32.925781 12.25 32.726562 12.152344 32.558594 C 10.84375 30.339844 10.089844 27.761719 10.089844 25 C 10.089844 16.757812 16.757812 10.089844 25 10.089844 Z M 19.066406 16.480469 C 18.609375 16.480469 17.960938 16.648438 17.425781 17.226562 C 17.105469 17.570312 15.769531 18.871094 15.769531 21.160156 C 15.769531 23.546875 17.425781 25.609375 17.625 25.871094 L 17.625 25.875 C 17.609375 25.847656 17.878906 26.242188 18.246094 26.71875 C 18.609375 27.191406 19.121094 27.816406 19.757812 28.488281 C 21.039062 29.835938 22.839844 31.394531 25.074219 32.347656 C 26.105469 32.785156 26.914062 33.050781 27.53125 33.242188 C 28.671875 33.601562 29.707031 33.546875 30.488281 33.433594 C 31.074219 33.347656 31.714844 33.066406 32.351562 32.664062 C 32.984375 32.261719 33.605469 31.761719 33.882812 31.003906 C 34.078125 30.457031 34.179688 29.957031 34.214844 29.542969 C 34.234375 29.335938 34.234375 29.152344 34.222656 28.984375 C 34.207031 28.8125 34.222656 28.683594 34.066406 28.425781 C 33.734375 27.882812 33.359375 27.867188 32.96875 27.675781 C 32.753906 27.566406 32.132812 27.265625 31.515625 26.96875 C 30.894531 26.675781 30.359375 26.414062 30.03125 26.296875 C 29.820312 26.222656 29.566406 26.113281 29.199219 26.15625 C 28.832031 26.195312 28.46875 26.460938 28.257812 26.773438 C 28.058594 27.070312 27.25 28.023438 27.003906 28.304688 C 27 28.300781 27.023438 28.3125 26.925781 28.261719 C 26.621094 28.113281 26.25 27.984375 25.699219 27.695312 C 25.148438 27.402344 24.460938 26.976562 23.707031 26.3125 L 23.707031 26.308594 C 22.589844 25.324219 21.804688 24.085938 21.554688 23.667969 C 21.570312 23.648438 21.554688 23.671875 21.589844 23.636719 C 21.84375 23.386719 22.066406 23.089844 22.257812 22.871094 C 22.527344 22.5625 22.644531 22.289062 22.773438 22.035156 C 23.027344 21.527344 22.886719 20.964844 22.738281 20.671875 C 22.75 20.691406 22.65625 20.492188 22.5625 20.261719 C 22.464844 20.03125 22.339844 19.730469 22.207031 19.414062 C 21.941406 18.773438 21.644531 18.058594 21.464844 17.640625 C 21.257812 17.144531 20.976562 16.789062 20.609375 16.617188 C 20.242188 16.445312 19.917969 16.496094 19.902344 16.496094 C 19.640625 16.484375 19.351562 16.480469 19.066406 16.480469 Z M 19.066406 17.898438 C 19.339844 17.898438 19.609375 17.902344 19.835938 17.914062 C 20.070312 17.925781 20.054688 17.925781 20.007812 17.90625 C 19.964844 17.882812 20.027344 17.878906 20.15625 18.191406 C 20.332031 18.601562 20.628906 19.320312 20.894531 19.960938 C 21.027344 20.277344 21.152344 20.578125 21.253906 20.816406 C 21.351562 21.050781 21.40625 21.183594 21.46875 21.308594 L 21.472656 21.308594 C 21.53125 21.429688 21.527344 21.355469 21.503906 21.394531 C 21.355469 21.691406 21.335938 21.765625 21.183594 21.941406 C 20.953125 22.207031 20.71875 22.503906 20.59375 22.625 C 20.484375 22.734375 20.289062 22.898438 20.164062 23.226562 C 20.042969 23.554688 20.097656 24.003906 20.296875 24.335938 C 20.558594 24.78125 21.425781 26.191406 22.769531 27.375 C 23.617188 28.125 24.40625 28.617188 25.039062 28.949219 C 25.667969 29.285156 26.183594 29.476562 26.296875 29.535156 C 26.570312 29.667969 26.867188 29.773438 27.214844 29.734375 C 27.5625 29.691406 27.859375 29.480469 28.050781 29.265625 C 28.304688 28.976562 29.058594 28.117188 29.417969 27.585938 C 29.433594 27.59375 29.429688 27.589844 29.550781 27.632812 C 29.605469 27.652344 30.292969 27.960938 30.90625 28.25 C 31.515625 28.542969 32.136719 28.847656 32.339844 28.945312 C 32.632812 29.089844 32.769531 29.183594 32.804688 29.183594 C 32.808594 29.246094 32.808594 29.316406 32.800781 29.417969 C 32.777344 29.703125 32.699219 30.097656 32.546875 30.519531 C 32.472656 30.726562 32.082031 31.152344 31.589844 31.464844 C 31.101562 31.777344 30.503906 31.996094 30.28125 32.027344 C 29.613281 32.125 28.824219 32.160156 27.957031 31.890625 C 27.355469 31.699219 26.605469 31.457031 25.632812 31.042969 C 23.660156 30.203125 21.988281 28.769531 20.789062 27.511719 C 20.191406 26.882812 19.710938 26.296875 19.371094 25.851562 C 19.03125 25.410156 18.882812 25.179688 18.757812 25.015625 C 18.535156 24.722656 17.191406 22.847656 17.191406 21.160156 C 17.191406 19.375 18.019531 18.675781 18.46875 18.191406 C 18.703125 17.9375 18.960938 17.898438 19.066406 17.898438 Z M 19.066406 17.898438 "/>
</g>
</svg>
