<?xml version="1.0" encoding="UTF-8"?>
<svg xmlns="http://www.w3.org/2000/svg" xmlns:xlink="http://www.w3.org/1999/xlink" viewBox="0 0 50 50" width="50px" height="50px">
<g id="surface10492552">
<path style=" stroke:none;fill-rule:nonzero;fill:rgb(65.490198%,56.078434%,86.274511%);fill-opacity:1;" d="M 25 50 C 11.191406 50 0 38.808594 0 25 C 0 11.191406 11.191406 0 25 0 C 38.808594 0 50 11.191406 50 25 C 50 38.808594 38.808594 50 25 50 Z M 25 50 "/>
<path style=" stroke:none;fill-rule:nonzero;fill:rgb(100%,100%,100%);fill-opacity:1;" d="M 17.800781 7.398438 C 12.082031 7.398438 7.398438 12.082031 7.398438 17.800781 L 7.398438 32.199219 C 7.398438 37.917969 12.082031 42.601562 17.800781 42.601562 L 32.199219 42.601562 C 37.917969 42.601562 42.601562 37.917969 42.601562 32.199219 L 42.601562 17.800781 C 42.601562 12.082031 37.917969 7.398438 32.199219 7.398438 Z M 17.800781 9 L 32.199219 9 C 37.042969 9 41 12.957031 41 17.800781 L 41 32.199219 C 41 37.042969 37.042969 41 32.199219 41 L 17.800781 41 C 12.957031 41 9 37.042969 9 32.199219 L 9 17.800781 C 9 12.957031 12.957031 9 17.800781 9 Z M 34.601562 13.800781 C 33.71875 13.800781 33 14.519531 33 15.398438 C 33 16.28125 33.71875 17 34.601562 17 C 35.480469 17 36.199219 16.28125 36.199219 15.398438 C 36.199219 14.519531 35.480469 13.800781 34.601562 13.800781 Z M 25 16.199219 C 20.164062 16.199219 16.199219 20.164062 16.199219 25 C 16.199219 29.835938 20.164062 33.800781 25 33.800781 C 29.835938 33.800781 33.800781 29.835938 33.800781 25 C 33.800781 20.164062 29.835938 16.199219 25 16.199219 Z M 25 17.800781 C 28.964844 17.800781 32.199219 21.035156 32.199219 25 C 32.199219 28.964844 28.964844 32.199219 25 32.199219 C 21.035156 32.199219 17.800781 28.964844 17.800781 25 C 17.800781 21.035156 21.035156 17.800781 25 17.800781 Z M 25 17.800781 "/>
</g>
</svg>
